<svg width="112" height="44" viewBox="0 0 112 44" fill="none" xmlns="http://www.w3.org/2000/svg">
<path d="M7.32 10.4V16.08H16.48V21.36H7.32V27.52H17.68V33H0.48V4.92H17.68V10.4H7.32ZM20.7606 21.88C20.7606 19.6667 21.214 17.6933 22.1206 15.96C23.054 14.2267 24.294 12.88 25.8406 11.92C27.414 10.9333 29.1206 10.44 30.9606 10.44C32.374 10.44 33.6406 10.6933 34.7606 11.2C35.8806 11.68 36.7873 12.36 37.4806 13.24V10.68H44.3206V43.64H37.4806V30.2C36.7073 31.1333 35.7606 31.88 34.6406 32.44C33.5473 33 32.294 33.28 30.8806 33.28C29.0673 33.28 27.3873 32.8 25.8406 31.84C24.294 30.88 23.054 29.5333 22.1206 27.8C21.214 26.0667 20.7606 24.0933 20.7606 21.88ZM37.4806 21.84C37.4806 20.64 37.2406 19.64 36.7606 18.84C36.3073 18.0133 35.7073 17.4 34.9606 17C34.214 16.5733 33.4273 16.36 32.6006 16.36C31.8006 16.36 31.0273 16.5733 30.2806 17C29.534 17.4 28.9206 18.0133 28.4406 18.84C27.9606 19.6667 27.7206 20.68 27.7206 21.88C27.7206 23.08 27.9606 24.0933 28.4406 24.92C28.9206 25.72 29.534 26.3333 30.2806 26.76C31.0273 27.16 31.8006 27.36 32.6006 27.36C33.4006 27.36 34.174 27.16 34.9206 26.76C35.694 26.3333 36.3073 25.7067 36.7606 24.88C37.2406 24.0533 37.4806 23.04 37.4806 21.84ZM71.3091 10.68V33H64.4691V29.96C63.7757 30.9467 62.8291 31.7467 61.6291 32.36C60.4557 32.9467 59.1491 33.24 57.7091 33.24C56.0024 33.24 54.4957 32.8667 53.1891 32.12C51.8824 31.3467 50.8691 30.24 50.1491 28.8C49.4291 27.36 49.0691 25.6667 49.0691 23.72V10.68H55.8691V22.8C55.8691 24.2933 56.2557 25.4533 57.0291 26.28C57.8024 27.1067 58.8424 27.52 60.1491 27.52C61.4824 27.52 62.5357 27.1067 63.3091 26.28C64.0824 25.4533 64.4691 24.2933 64.4691 22.8V10.68H71.3091ZM79.6622 8.36C78.4622 8.36 77.4755 8.01333 76.7022 7.32C75.9555 6.6 75.5822 5.72 75.5822 4.68C75.5822 3.61333 75.9555 2.73333 76.7022 2.04C77.4755 1.32 78.4622 0.959998 79.6622 0.959998C80.8355 0.959998 81.7955 1.32 82.5422 2.04C83.3155 2.73333 83.7022 3.61333 83.7022 4.68C83.7022 5.72 83.3155 6.6 82.5422 7.32C81.7955 8.01333 80.8355 8.36 79.6622 8.36ZM83.0622 10.68V33H76.2222V10.68H83.0622ZM94.8591 13.84C95.5257 12.8 96.4457 11.96 97.6191 11.32C98.7924 10.68 100.166 10.36 101.739 10.36C103.579 10.36 105.246 10.8267 106.739 11.76C108.232 12.6933 109.406 14.0267 110.259 15.76C111.139 17.4933 111.579 19.5067 111.579 21.8C111.579 24.0933 111.139 26.12 110.259 27.88C109.406 29.6133 108.232 30.96 106.739 31.92C105.246 32.8533 103.579 33.32 101.739 33.32C100.192 33.32 98.8191 33 97.6191 32.36C96.4457 31.72 95.5257 30.8933 94.8591 29.88V43.64H88.0191V10.68H94.8591V13.84ZM104.619 21.8C104.619 20.0933 104.139 18.76 103.179 17.8C102.246 16.8133 101.086 16.32 99.6991 16.32C98.3391 16.32 97.1791 16.8133 96.2191 17.8C95.2857 18.7867 94.8191 20.1333 94.8191 21.84C94.8191 23.5467 95.2857 24.8933 96.2191 25.88C97.1791 26.8667 98.3391 27.36 99.6991 27.36C101.059 27.36 102.219 26.8667 103.179 25.88C104.139 24.8667 104.619 23.5067 104.619 21.8Z" fill="white"/>
</svg>
